<svg width="24" height="24" viewBox="0 0 24 24" fill="none" xmlns="http://www.w3.org/2000/svg">
<path d="M8.01348 12.9449C9.65852 12.9449 10.9892 14.2875 10.9892 15.9413V19.0045C10.9892 20.6576 9.65833 22 8.01348 22H4.97574C3.33089 22 2 20.6576 2 19.0045V15.9413C2 14.2875 3.3307 12.9449 4.97574 12.9449H8.01348ZM19.0252 12.9449C20.6695 12.9449 22 14.2877 22 15.9413V19.0045C22 20.6574 20.6693 22 19.0252 22H15.9865C14.3417 22 13.0108 20.6576 13.0108 19.0045V15.9413C13.0108 14.2875 14.3415 12.9449 15.9865 12.9449H19.0252ZM8.01348 14.3402H4.97574C4.10413 14.3402 3.39535 15.0553 3.39535 15.9413V19.0045C3.39535 19.8896 4.10423 20.6047 4.97574 20.6047H8.01348C8.88499 20.6047 9.59387 19.8896 9.59387 19.0045V15.9413C9.59387 15.0553 8.88509 14.3402 8.01348 14.3402ZM19.0252 14.3402H15.9865C15.1149 14.3402 14.4061 15.0553 14.4061 15.9413V19.0045C14.4061 19.8896 15.115 20.6047 15.9865 20.6047H19.0252C19.8959 20.6047 20.6047 19.8895 20.6047 19.0045V15.9413C20.6047 15.0554 19.896 14.3402 19.0252 14.3402ZM19.0252 2C20.6693 2 22 3.34264 22 4.99552V8.05963C22 9.71184 20.669 11.0551 19.0252 11.0551H15.9865C14.342 11.0551 13.0108 9.71203 13.0108 8.05963V4.99552C13.0108 3.34244 14.3417 2 15.9865 2H19.0252ZM8.01348 2C9.65833 2 10.9892 3.34244 10.9892 4.99552V8.05963C10.9892 9.71203 9.65805 11.0551 8.01348 11.0551H4.97574C3.33117 11.0551 2 9.71203 2 8.05963V4.99552C2 3.34244 3.33089 2 4.97574 2H8.01348ZM19.0252 3.39535H15.9865C15.115 3.39535 14.4061 4.11039 14.4061 4.99552V8.05963C14.4061 8.94418 15.1154 9.6598 15.9865 9.6598H19.0252C19.8955 9.6598 20.6047 8.94407 20.6047 8.05963V4.99552C20.6047 4.11049 19.8959 3.39535 19.0252 3.39535ZM8.01348 3.39535H4.97574C4.10423 3.39535 3.39535 4.11039 3.39535 4.99552V8.05963C3.39535 8.94418 4.10461 9.6598 4.97574 9.6598H8.01348C8.88461 9.6598 9.59387 8.94418 9.59387 8.05963V4.99552C9.59387 4.11039 8.88499 3.39535 8.01348 3.39535Z" fill="#0351DF"/>
</svg>
