<svg width="24" height="24" viewBox="0 0 24 24" fill="none" xmlns="http://www.w3.org/2000/svg">
<path d="M21.3415 19.2089C21.7052 19.2089 22 19.498 22 19.8545C22 20.1813 21.7523 20.4514 21.4308 20.4941L21.3415 20.5H14.471C14.1073 20.5 13.8125 20.211 13.8125 19.8545C13.8125 19.5277 14.0602 19.2576 14.3816 19.2148L14.471 19.2089H21.3415ZM14.6592 4.41662C15.906 3.19446 17.9283 3.19446 19.175 4.41662L20.4694 5.6854C21.7162 6.90755 21.7162 8.88985 20.4694 10.112L10.7406 19.6486C10.1843 20.1939 9.43007 20.4999 8.64282 20.4999H4.65854C4.28841 20.4999 3.99098 20.201 4.00021 19.8383L4.10043 15.8975C4.12036 15.1526 4.43127 14.4425 4.96867 13.9157L14.6592 4.41662ZM13.906 6.979L5.89998 14.8287C5.60126 15.1215 5.42814 15.5169 5.41707 15.9305L5.33345 19.2084L8.64282 19.2088C9.03222 19.2088 9.4067 19.0745 9.70228 18.8317L9.8093 18.7357L17.855 10.849L13.906 6.979ZM18.2437 5.32953C17.5113 4.61156 16.323 4.61156 15.5905 5.32953L14.838 6.066L18.786 9.936L19.5381 9.19909C20.2298 8.52101 20.2683 7.44433 19.6534 6.72195L19.5381 6.59831L18.2437 5.32953Z" fill="#0351DF"/>
</svg>
