<svg width="24" height="24" viewBox="0 0 24 24" fill="none" xmlns="http://www.w3.org/2000/svg">
<path d="M21.7046 4.59145L21.668 4.73242L17.0229 20.3719C16.5619 21.9229 14.5396 22.2328 13.6263 20.9533L13.5388 20.8201L9.64304 14.366L3.1675 10.3801C1.79103 9.53277 2.01651 7.48602 3.4861 6.93295L3.63719 6.88272L19.2937 2.32699C20.7091 1.91739 22.0162 3.18579 21.7046 4.59145ZM19.7847 3.75314L19.7118 3.76756L4.0558 8.32313C3.7299 8.41772 3.64985 8.83643 3.88768 9.05309L3.9538 9.10274L10.078 12.872L15.3233 7.59254C15.5887 7.32538 16.0053 7.29979 16.2996 7.51667L16.384 7.589C16.6512 7.85438 16.6767 8.27096 16.4599 8.5653L16.3875 8.64966L11.135 13.936L14.823 20.045C14.9986 20.3359 15.4094 20.3068 15.5546 20.0214L15.585 19.9447L20.2303 4.30464C20.3202 4.00303 20.0735 3.72213 19.7847 3.75314Z" fill="#0351DF"/>
</svg>
