<svg width="24" height="24" viewBox="0 0 24 24" fill="none" xmlns="http://www.w3.org/2000/svg">
<path d="M12.002 4L12.2882 4.00482C16.2192 4.13547 19.7497 6.90091 21.7968 11.3856L21.9361 11.699C22.0203 11.8884 22.0213 12.104 21.9391 12.2942C19.8707 17.0769 16.1389 20 11.998 20L11.7118 19.9952C7.77544 19.8644 4.24638 17.0931 2.20424 12.6168L2.06091 12.2942C1.9797 12.1064 1.9797 11.8936 2.06091 11.7058C4.12926 6.92308 7.86108 4 12.002 4ZM12.009 5.48942C8.69148 5.49027 5.61117 7.77315 3.72658 11.6662L3.57 11.9991L3.73914 12.3597C5.52637 16.0344 8.38271 18.2721 11.4806 18.4915L11.7469 18.5054L12.004 18.5088L12.2589 18.505C15.5569 18.3853 18.5987 16.0005 20.4197 12.0231L20.429 11.9991C18.6525 8.10553 15.7122 5.73484 12.5149 5.50845L12.2479 5.49456L12.009 5.48942ZM11.9995 8.11346C14.16 8.11346 15.9115 9.85325 15.9115 12.0002C15.9115 14.1463 14.1598 15.8859 11.9995 15.8859C9.83929 15.8859 8.0885 14.1465 8.0885 12.0002C8.0885 9.85313 9.8391 8.11346 11.9995 8.11346ZM11.9995 9.60378C10.6676 9.60378 9.5885 10.6761 9.5885 12.0002C9.5885 13.3234 10.6677 14.3956 11.9995 14.3956C13.3316 14.3956 14.4115 13.3231 14.4115 12.0002C14.4115 10.6764 13.3317 9.60378 11.9995 9.60378Z" fill="#0351DF"/>
</svg>
