<svg width="32" height="32" viewBox="0 0 32 32" fill="none" xmlns="http://www.w3.org/2000/svg">
<circle cx="16" cy="16" r="16" fill="#00C92C" fill-opacity="0.11"/>
<path d="M21.0527 17.698L14.5233 21.7613C14.2205 21.9498 13.8728 22.0538 13.5162 22.0626C13.1597 22.0715 12.8072 21.9848 12.4955 21.8116C12.1837 21.6384 11.9239 21.385 11.743 21.0776C11.5621 20.7702 11.4667 20.42 11.4667 20.0633L11.4667 11.9367C11.4667 11.58 11.5621 11.2298 11.743 10.9224C11.9239 10.615 12.1837 10.3616 12.4955 10.1884C12.8072 10.0152 13.1597 9.92851 13.5162 9.93735C13.8728 9.94619 14.2205 10.0502 14.5233 10.2387L21.0533 14.302C21.3419 14.4816 21.5799 14.7317 21.7449 15.0288C21.91 15.3259 21.9966 15.6601 21.9966 16C21.9966 16.3398 21.91 16.6741 21.7449 16.9712C21.5799 17.2683 21.3419 17.5184 21.0533 17.698L21.0527 17.698Z" fill="#0FBD00"/>
</svg>
