<svg width="20" height="20" viewBox="0 0 20 20" fill="none" xmlns="http://www.w3.org/2000/svg">
<path d="M16.25 6.25003C16.2502 5.81165 16.1351 5.38094 15.9163 5.00107C15.6975 4.62121 15.3826 4.30556 15.0033 4.08579C14.624 3.86601 14.1936 3.74983 13.7552 3.7489C13.3169 3.74798 12.886 3.86234 12.5057 4.08051C12.1255 4.29869 11.8093 4.613 11.5889 4.99194C11.3685 5.37087 11.2516 5.8011 11.25 6.23947C11.2483 6.67784 11.362 7.10894 11.5795 7.48952C11.797 7.87011 12.1108 8.1868 12.4894 8.40784C12.4 9.54378 11.705 9.85315 9.55972 10.2992C8.86597 10.443 8.1562 10.5903 7.50073 10.8434V5.9137C7.97734 5.63853 8.34983 5.21379 8.56043 4.70534C8.77104 4.1969 8.80799 3.63317 8.66555 3.10159C8.52311 2.57 8.20925 2.10027 7.77264 1.76525C7.33603 1.43023 6.80107 1.24863 6.25073 1.24863C5.7004 1.24863 5.16544 1.43023 4.72883 1.76525C4.29222 2.10027 3.97836 2.57 3.83592 3.10159C3.69348 3.63317 3.73043 4.1969 3.94103 4.70534C4.15164 5.21379 4.52413 5.63853 5.00073 5.9137V14.0864C4.52485 14.3611 4.15277 14.7851 3.94203 15.2926C3.73129 15.8001 3.69364 16.3629 3.8349 16.894C3.97615 17.425 4.28845 17.8947 4.72348 18.2305C5.15852 18.5662 5.69206 18.7493 6.24158 18.7513C6.79109 18.7534 7.32598 18.5743 7.7635 18.2418C8.20103 17.9093 8.51682 17.4419 8.66203 16.9119C8.80724 16.382 8.77378 15.8189 8.56683 15.3098C8.35987 14.8008 7.99096 14.3741 7.51714 14.0957C7.6105 13.3926 8.14214 13.1453 10.0664 12.7473C11.1378 12.5258 12.2453 12.2965 13.1828 11.6946C14.3156 10.9688 14.9222 9.86721 14.9937 8.4176C15.3753 8.19876 15.6924 7.88312 15.9129 7.50253C16.1335 7.12195 16.2498 6.68991 16.25 6.25003ZM6.24995 2.50003C6.49718 2.50003 6.73885 2.57334 6.94442 2.71069C7.14998 2.84804 7.31019 3.04326 7.4048 3.27167C7.49941 3.50008 7.52417 3.75141 7.47593 3.99389C7.4277 4.23637 7.30865 4.45909 7.13384 4.63391C6.95902 4.80873 6.73629 4.92778 6.49382 4.97601C6.25134 5.02424 6.00001 4.99949 5.7716 4.90488C5.54319 4.81027 5.34797 4.65005 5.21062 4.44449C5.07326 4.23893 4.99995 3.99725 4.99995 3.75003C4.99995 3.41851 5.13165 3.10056 5.36607 2.86614C5.60049 2.63172 5.91843 2.50003 6.24995 2.50003ZM6.24995 17.5C6.00273 17.5 5.76105 17.4267 5.55549 17.2894C5.34993 17.152 5.18971 16.9568 5.0951 16.7284C5.00049 16.5 4.97574 16.2486 5.02397 16.0062C5.0722 15.7637 5.19125 15.541 5.36607 15.3661C5.54088 15.1913 5.76361 15.0723 6.00609 15.024C6.24857 14.9758 6.4999 15.0006 6.72831 15.0952C6.95671 15.1898 7.15194 15.35 7.28929 15.5556C7.42664 15.7611 7.49995 16.0028 7.49995 16.25C7.49995 16.5815 7.36826 16.8995 7.13384 17.1339C6.89942 17.3683 6.58147 17.5 6.24995 17.5ZM13.75 7.50003C13.5027 7.50003 13.2611 7.42672 13.0555 7.28936C12.8499 7.15201 12.6897 6.95679 12.5951 6.72838C12.5005 6.49997 12.4757 6.24864 12.524 6.00616C12.5722 5.76369 12.6913 5.54096 12.8661 5.36614C13.0409 5.19133 13.2636 5.07228 13.5061 5.02404C13.7486 4.97581 13.9999 5.00057 14.2283 5.09518C14.4567 5.18979 14.6519 5.35 14.7893 5.55556C14.9266 5.76113 15 6.0028 15 6.25003C15 6.58155 14.8683 6.89949 14.6338 7.13391C14.3994 7.36833 14.0815 7.50003 13.75 7.50003Z" fill="#0351DF"/>
</svg>
