<svg width="20" height="20" viewBox="0 0 20 20" fill="none" xmlns="http://www.w3.org/2000/svg">
<path d="M10.5134 1.66666C11.1043 1.66643 11.6701 1.90051 12.0819 2.31559C12.4937 2.73067 12.7166 3.2914 12.6986 3.81471L12.7057 3.93779C12.7201 4.05899 12.7604 4.17596 12.8257 4.28378C12.9529 4.49639 13.1613 4.65067 13.4047 4.71261C13.6482 4.77455 13.9069 4.73906 14.1518 4.59865L14.2883 4.52958C15.3133 4.05748 16.5426 4.43265 17.1111 5.3994L17.6221 6.26811C17.6356 6.29101 17.6474 6.31468 17.6577 6.33895L17.7051 6.43201C18.1621 7.38766 17.8369 8.52439 16.9687 9.1019L16.7543 9.2339C16.6422 9.31047 16.5487 9.41048 16.4785 9.53065C16.3515 9.74409 16.3167 9.99829 16.3817 10.237C16.4466 10.4757 16.606 10.6791 16.8478 10.8161L16.987 10.9034C17.4072 11.1914 17.7108 11.6159 17.8433 12.1025C17.9927 12.6514 17.9125 13.2361 17.6166 13.7337L17.0669 14.6308L16.984 14.7574C16.3382 15.6673 15.0842 15.9453 14.1273 15.4041L14.0139 15.3469C13.8955 15.295 13.7679 15.2666 13.6517 15.2634C13.3989 15.2622 13.156 15.36 12.9773 15.5352C12.7985 15.7103 12.6986 15.9482 12.6993 16.2248L12.6925 16.3679C12.6 17.4753 11.6537 18.3333 10.5137 18.3333H9.48423C8.27684 18.3333 7.29805 17.3744 7.29928 16.2295L7.2922 16.1064C7.27782 15.9852 7.23754 15.8682 7.16893 15.7548C7.04447 15.5416 6.83827 15.386 6.59616 15.3226C6.35405 15.2591 6.09608 15.293 5.84639 15.4344L5.69803 15.507C5.22884 15.7137 4.69962 15.7519 4.20372 15.6139C3.64423 15.4581 3.17117 15.0903 2.89511 14.602L2.364 13.7035L2.29332 13.5704C1.80965 12.5701 2.18877 11.3677 3.15097 10.8229L3.23872 10.769C3.49577 10.5947 3.6499 10.3073 3.6499 10C3.6499 9.6658 3.46792 9.35698 3.14958 9.17626L3.02042 9.09507C2.09168 8.4623 1.80792 7.23374 2.38326 6.25579L2.92433 5.38471C3.52608 4.36147 4.85964 4.00847 5.8853 4.58476L5.99633 4.64275C6.10952 4.69365 6.23247 4.72066 6.35085 4.7219C6.87286 4.72195 7.29814 4.31127 7.30604 3.78484L7.31314 3.62317C7.35588 3.12263 7.57757 2.65225 7.93997 2.29548C8.34885 1.89296 8.90459 1.66666 9.48423 1.66666H10.5134ZM10.5137 2.87311H9.48423C9.2322 2.87311 8.99056 2.9715 8.81279 3.14652C8.65522 3.30163 8.55882 3.50617 8.54191 3.69717L8.53072 3.95125C8.4445 5.05906 7.49975 5.92846 6.3444 5.92831C6.04657 5.92528 5.75297 5.86077 5.45356 5.72521L5.29326 5.64238C4.83651 5.38596 4.2541 5.54012 3.98382 5.99937L3.44275 6.87046C3.19482 7.29203 3.31881 7.82888 3.70271 8.09104L3.91997 8.22583C4.51831 8.62221 4.8813 9.28579 4.8813 10C4.8813 10.7038 4.52845 11.3617 3.9185 11.7747L3.78867 11.8547C3.36129 12.0969 3.19636 12.62 3.395 13.0319L3.44191 13.1207L3.96628 14.007C4.08941 14.2247 4.29601 14.3853 4.54036 14.4534C4.75693 14.5137 4.98808 14.497 5.16841 14.4182L5.25901 14.3747C5.75914 14.0888 6.35512 14.0105 6.91449 14.1571C7.47385 14.3038 7.95024 14.6633 8.23282 15.1474C8.38483 15.3983 8.48102 15.6776 8.51826 15.9987L8.53505 16.2934C8.58689 16.7621 8.99207 17.1269 9.48423 17.1269H10.5137C11.0114 17.1269 11.4249 16.7519 11.4637 16.2926L11.4685 16.2017C11.4657 15.632 11.6954 15.0849 12.1066 14.6821C12.5177 14.2793 13.0761 14.0542 13.6711 14.0571C13.963 14.0648 14.2503 14.1289 14.544 14.2584L14.8073 14.3901C15.2206 14.5679 15.7108 14.4382 15.9593 14.0889L16.0197 13.9964L16.5566 13.1197C16.6836 12.9062 16.7184 12.652 16.6534 12.4133C16.5959 12.2018 16.4638 12.0172 16.3038 11.9068L16.0769 11.7663C15.643 11.479 15.3277 11.0469 15.1919 10.5478C15.0424 9.99888 15.1226 9.41422 15.4122 8.92718C15.5708 8.65596 15.7887 8.42277 16.0728 8.22943L16.2067 8.14678C16.6334 7.90225 16.7982 7.3792 16.601 6.96569L16.5421 6.85441L16.5315 6.83105L16.0442 6.00173C15.8137 5.60979 15.3341 5.44044 14.9271 5.57425L14.8346 5.61054L14.7486 5.65346C14.2501 5.94117 13.6553 6.0228 13.0953 5.88034C12.5353 5.73788 12.0561 5.38304 11.7651 4.8968C11.6131 4.64586 11.5169 4.36653 11.4796 4.04545L11.4687 3.8354C11.4761 3.58269 11.3788 3.3378 11.1989 3.15652C11.0191 2.97524 10.772 2.87311 10.5137 2.87311ZM10.0027 7.27652C11.538 7.27652 12.7825 8.49586 12.7825 10C12.7825 11.5041 11.538 12.7235 10.0027 12.7235C8.46747 12.7235 7.22291 11.5041 7.22291 10C7.22291 8.49586 8.46747 7.27652 10.0027 7.27652ZM10.0027 8.48296C9.14755 8.48296 8.45431 9.16216 8.45431 10C8.45431 10.8378 9.14755 11.517 10.0027 11.517C10.8579 11.517 11.5511 10.8378 11.5511 10C11.5511 9.16216 10.8579 8.48296 10.0027 8.48296Z" fill="#0351DF"/>
</svg>
